<svg xmlns="http://www.w3.org/2000/svg" width="31.67" height="28.985" viewBox="0 0 31.67 28.985">
  <g id="Group_1661" data-name="Group 1661" transform="translate(0 -21.706)" style="isolation: isolate">
    <path id="Path_5471" data-name="Path 5471" d="M345.495,370.512a3.949,3.949,0,1,1,3.949-3.949A3.953,3.953,0,0,1,345.495,370.512Zm0-5.528a1.58,1.58,0,1,0,1.58,1.58A1.581,1.581,0,0,0,345.495,364.983Z" transform="translate(-320.42 -319.821)" fill="#fff"/>
    <path id="Path_5472" data-name="Path 5472" d="M27.6,41.095H9.161a1.185,1.185,0,0,1-1.152-.909l-3.85-16.11H1.185a1.185,1.185,0,1,1,0-2.369H5.094a1.185,1.185,0,0,1,1.152.909l1.066,4.461H30.485a1.185,1.185,0,0,1,1.15,1.469L28.752,40.195A1.184,1.184,0,0,1,27.6,41.095ZM10.1,38.725H26.676l2.3-9.279H7.879Z" fill="#fff"/>
    <path id="Path_5473" data-name="Path 5473" d="M113.754,370.512a3.949,3.949,0,1,1,3.949-3.949A3.953,3.953,0,0,1,113.754,370.512Zm0-5.528a1.58,1.58,0,1,0,1.58,1.58A1.581,1.581,0,0,0,113.754,364.983Z" transform="translate(-103.013 -319.821)" fill="#fff"/>
  </g>
</svg>
