<svg xmlns="http://www.w3.org/2000/svg" xmlns:xlink="http://www.w3.org/1999/xlink" width="28" height="28" viewBox="0 0 28 28">
  <defs>
    <clipPath id="clip-path">
      <rect id="Rectangle_3" data-name="Rectangle 3" width="28" height="28" fill="#28d3b4"/>
    </clipPath>
  </defs>
  <g id="Group_14" data-name="Group 14" clip-path="url(#clip-path)">
    <path id="Path_2" data-name="Path 2" d="M-40.752,73.427-28.4,59.887l1.631,1.484-13.873,15.2L-48.2,69.4l1.521-1.6Zm13.13-7.882-1.721,1.892a11.858,11.858,0,0,1,.383,3,11.92,11.92,0,0,1-11.916,11.9,11.92,11.92,0,0,1-11.916-11.9,11.92,11.92,0,0,1,11.916-11.9,11.88,11.88,0,0,1,7.933,3.028l1.488-1.635a14.034,14.034,0,0,0-9.421-3.6,14.042,14.042,0,0,0-9.987,4.13A14,14,0,0,0-55,70.433a14,14,0,0,0,4.137,9.97,14.042,14.042,0,0,0,9.987,4.13A14.042,14.042,0,0,0-30.89,80.4a14,14,0,0,0,4.137-9.97,14.08,14.08,0,0,0-.869-4.888Zm0,0" transform="translate(55 -56.318)" fill="#28d3b4"/>
  </g>
</svg>
