<svg xmlns="http://www.w3.org/2000/svg" width="164" height="165" viewBox="0 0 164 165">
  <g id="Group_47130" data-name="Group 47130" transform="translate(-240 -7932)">
    <g id="Rectangle_1787" data-name="Rectangle 1787" transform="translate(240 7932)" fill="none" stroke="#fff" stroke-width="7">
      <rect width="164" height="165" rx="10" stroke="none"/>
      <rect x="3.5" y="3.5" width="157" height="158" rx="6.5" fill="none"/>
    </g>
    <g id="Path_30406" data-name="Path 30406" transform="translate(240 7957)" fill="none">
      <path d="M0,0H164V114H0Z" stroke="none"/>
      <path d="M 7 7 L 7 107 L 157 107 L 157 7 L 7 7 M 0 0 L 164 0 L 164 114 L 0 114 L 0 0 Z" stroke="none" fill="#fff"/>
    </g>
    <circle id="Ellipse_41" data-name="Ellipse 41" cx="7" cy="7" r="7" transform="translate(256 7964)" fill="#fff"/>
    <circle id="Ellipse_42" data-name="Ellipse 42" cx="7" cy="7" r="7" transform="translate(315 7964)" fill="#fff"/>
    <circle id="Ellipse_43" data-name="Ellipse 43" cx="7" cy="7" r="7" transform="translate(375 7964)" fill="#fff"/>
    <circle id="Ellipse_44" data-name="Ellipse 44" cx="7" cy="7" r="7" transform="translate(256 8050)" fill="#fff"/>
    <circle id="Ellipse_45" data-name="Ellipse 45" cx="7" cy="7" r="7" transform="translate(315 8050)" fill="#fff"/>
    <circle id="Ellipse_46" data-name="Ellipse 46" cx="7" cy="7" r="7" transform="translate(375 8050)" fill="#fff"/>
  </g>
</svg>
