<svg xmlns="http://www.w3.org/2000/svg" width="197.807" height="114.722" viewBox="0 0 197.807 114.722">
  <g id="Group_47136" data-name="Group 47136" transform="translate(-1711.492 -9051)">
    <g id="Group_47135" data-name="Group 47135" transform="translate(1820.23 9054.5) rotate(90)">
      <path id="Path_30408" data-name="Path 30408" d="M0,0H56.281" transform="translate(0 11.725)" fill="none" stroke="#fff" stroke-linecap="round" stroke-width="7"/>
      <line id="Line_59" data-name="Line 59" x2="9.966" y2="11.725" transform="translate(46.315)" fill="none" stroke="#fff" stroke-linecap="round" stroke-width="7"/>
      <line id="Line_60" data-name="Line 60" y1="11.725" x2="9.966" transform="translate(46.315 11.725)" fill="none" stroke="#fff" stroke-linecap="round" stroke-width="7"/>
    </g>
    <path id="Path_30416" data-name="Path 30416" d="M-21331.008,13516.084l15.223-28.986,59.85,20.854a60,60,0,0,0,15.225,2.341,57.378,57.378,0,0,0,15.012-2.341l72.363-20.854,13.137,28.986-85.5,27.318a72.393,72.393,0,0,1-15.012,1.82,75.758,75.758,0,0,1-15.225-1.82Z" transform="translate(23046 -4383.001)" fill="none" stroke="#fff" stroke-linecap="round" stroke-linejoin="round" stroke-width="7"/>
  </g>
</svg>
