 <svg xmlns="http://www.w3.org/2000/svg" width="72.742" height="72.687" viewBox="0 0 72.742 72.687">
                            <g id="Group_648" data-name="Group 648" transform="translate(2686 -2611)">
                              <rect id="Rectangle_51" data-name="Rectangle 51" width="2.334" height="2.334" transform="translate(-2650.902 2615.654)" fill="#fff"/>
                              <rect id="Rectangle_52" data-name="Rectangle 52" width="2.334" height="2.334" transform="translate(-2650.902 2676.484)" fill="#fff"/>
                              <rect id="Rectangle_53" data-name="Rectangle 53" width="2.334" height="2.334" transform="translate(-2629.886 2625.724) rotate(-45)" fill="#fff"/>
                              <rect id="Rectangle_54" data-name="Rectangle 54" width="2.334" height="2.334" transform="translate(-2672.896 2668.742) rotate(-45)" fill="#fff"/>
                              <rect id="Rectangle_55" data-name="Rectangle 55" width="2.334" height="2.334" transform="translate(-2620.501 2646.069)" fill="#fff"/>
                              <rect id="Rectangle_56" data-name="Rectangle 56" width="2.334" height="2.334" transform="translate(-2681.317 2646.069)" fill="#fff"/>
                              <rect id="Rectangle_57" data-name="Rectangle 57" width="2.334" height="2.334" transform="translate(-2672.89 2625.73) rotate(-45)" fill="#fff"/>
                              <path id="Path_119" data-name="Path 119" d="M-16.792,156.333a8.494,8.494,0,0,0-3.165-6.158l-7.131-5.885.243-.344a30.515,30.515,0,0,0,2.706-6.286l7.146-.716V120.791l-7.146-.716a31.5,31.5,0,0,0-2.305-5.57l4.554-5.556L-33.317,97.521l-5.556,4.554a29.482,29.482,0,0,0-5.57-2.305l-.716-7.146H-61.341l-.716,7.146a31.5,31.5,0,0,0-5.57,2.305l-5.57-4.568-11.427,11.427,4.568,5.556a30.645,30.645,0,0,0-2.32,5.585l-7.146.716v16.153l7.146.716a30.1,30.1,0,0,0,2.32,5.57l-4.554,5.556,11.427,11.427,5.556-4.554a30.511,30.511,0,0,0,5.57,2.32l.716,7.146h16.153l.716-7.146a30.025,30.025,0,0,0,6.372-2.764l.315-.215,5.885,7.117a8.46,8.46,0,0,0,6.158,3.179c.158.014.315.014.473.014a8.5,8.5,0,0,0,6.014-2.492A8.578,8.578,0,0,0-16.792,156.333Zm-22.554-3.093a28.213,28.213,0,0,1-6.516,2.706l-.773.215-.659,6.63H-59.207l-.673-6.63-.773-.215a27.6,27.6,0,0,1-6.516-2.706l-.7-.4-5.155,4.224-8.434-8.434,4.224-5.155-.4-.7a28.214,28.214,0,0,1-2.706-6.516l-.215-.773-6.63-.659V122.91l6.63-.659.215-.773a27.6,27.6,0,0,1,2.706-6.516l.4-.7-4.224-5.155,8.434-8.434,5.155,4.224.7-.4a27.6,27.6,0,0,1,6.516-2.706l.773-.215.659-6.63h11.914l.659,6.63.773.215A27.6,27.6,0,0,1-39.36,104.5l.7.4,5.155-4.224,8.434,8.434-4.224,5.155.4.7a27.852,27.852,0,0,1,2.706,6.516l.215.773,6.63.659v11.914l-6.63.659-.215.773a28.106,28.106,0,0,1-2.649,6.444l-.057.086-4.6-3.809a22.289,22.289,0,0,0,2.463-10.124A22.245,22.245,0,0,0-53.25,106.629a22.245,22.245,0,0,0-22.224,22.224A22.245,22.245,0,0,0-53.25,151.077a22.145,22.145,0,0,0,10.181-2.492l3.809,4.6Zm-1.2-20.076c0-.014,0-.029.014-.029a14.863,14.863,0,0,0,.387-1.575.838.838,0,0,0,.029-.186,14.147,14.147,0,0,0,.158-1.547c0-.072.014-.158.014-.229A10.762,10.762,0,0,0-40,128.08c-.014-.086-.014-.158-.029-.243a13.5,13.5,0,0,0-.258-1.489c-.014-.086-.043-.158-.057-.243a13.031,13.031,0,0,0-.458-1.446l-.086-.215a13.838,13.838,0,0,0-.659-1.4.591.591,0,0,0-.1-.158,13.5,13.5,0,0,0-.874-1.346c-.029-.029-.043-.057-.072-.086a15.638,15.638,0,0,0-1.117-1.289,12.876,12.876,0,0,0-12.415-3.322l-1.962.53,8.019,8.019-2.076,4.754-4.525,1.89L-64.706,124l-.516,1.962A12.926,12.926,0,0,0-61.9,138.376c.3.3.616.573.945.859a12.849,12.849,0,0,0,8.864,2.878,14.523,14.523,0,0,0,1.9-.272c.415-.086.845-.186,1.26-.315l4.325,5.227a19.884,19.884,0,0,1-8.649,1.99,19.911,19.911,0,0,1-19.89-19.89,19.911,19.911,0,0,1,19.89-19.89,19.911,19.911,0,0,1,19.89,19.89,19.858,19.858,0,0,1-1.962,8.592Zm19.632,28a6.165,6.165,0,0,1-4.7,1.79,6.163,6.163,0,0,1-4.482-2.32l-2.334-2.821h0l-8.578-10.382h0l-7.174-8.678-.788.3a10.491,10.491,0,0,1-10.482-1.632c-.272-.229-.544-.473-.788-.716a10.351,10.351,0,0,1-1.776-2.406,10.574,10.574,0,0,1-1.274-5.6l6.086,6.086,6.831-2.85,3.107-7.06-6.1-6.1a10.579,10.579,0,0,1,8.019,3.05A10.547,10.547,0,0,1-43,133.106l-.3.788,8.663,7.16h0l13.231,10.94a6.192,6.192,0,0,1,2.305,4.468A6.3,6.3,0,0,1-20.916,161.159Z" transform="translate(-2596.478 2518.376)" fill="#fff"/>
                              <path id="Path_120" data-name="Path 120" d="M337.6,515.724a3.623,3.623,0,1,0,3.623,3.623A3.627,3.627,0,0,0,337.6,515.724Zm0,4.9a1.274,1.274,0,1,1,1.274-1.274A1.277,1.277,0,0,1,337.6,520.621Z" transform="translate(-2959.334 2155.863)" fill="#fff"/>
                            </g>
                        </svg>