<svg xmlns="http://www.w3.org/2000/svg" width="72.863" height="72.687" viewBox="0 0 72.863 72.687">
                            <g id="Group_781" data-name="Group 781" transform="translate(-106.102 -126)" style="isolation: isolate">
                              <path id="Path_790" data-name="Path 790" d="M156.447,163.9v2.515h2.345V163.9a3.333,3.333,0,0,0,.495-6.169L157,156.586a1,1,0,0,1,.446-1.9h.341a1,1,0,0,1,1,1v.171h2.345v-.171a3.34,3.34,0,0,0-2.345-3.176V150h-2.345v2.515a3.333,3.333,0,0,0-.495,6.169l2.284,1.143a1,1,0,0,1-.446,1.9h-.341a1,1,0,0,1-1-1v-1.343H154.1v1.343a3.34,3.34,0,0,0,2.345,3.176Zm0,0" transform="translate(-38.621 -19.31)" fill="#fff"/>
                              <path id="Path_791" data-name="Path 791" d="M158.792,392.515V390h-2.345v2.515a3.333,3.333,0,0,0-.495,6.169l2.284,1.143a.993.993,0,0,1,.555.9,1,1,0,0,1-1,1h-.341a1,1,0,0,1-1-1v-1.343H154.1v1.343a3.337,3.337,0,0,0,2.345,3.176v2.515h2.345V403.9a3.333,3.333,0,0,0,.495-6.169L157,396.586a.993.993,0,0,1-.555-.9,1,1,0,0,1,1-1h.341a1,1,0,0,1,1,1v.171h2.345v-.171a3.34,3.34,0,0,0-2.345-3.176Zm0,0" transform="translate(-38.621 -212.415)" fill="#fff"/>
                              <path id="Path_792" data-name="Path 792" d="M119,151.792a12.905,12.905,0,0,0,12.067-8.39l9.042,2.466c0,.021-.006.04-.006.062a4.677,4.677,0,0,0,9.337.414l5.143-.857a4.689,4.689,0,0,0,4.278,2.788,4.639,4.639,0,0,0,2.911-1.043l12.953,9.715-4.332.722.385,2.313,8.19-1.365-1.365-8.19-2.313.385.692,4.149-12.788-9.591a4.678,4.678,0,1,0-8.98-2.2l-5.143.857a4.663,4.663,0,0,0-8.329-.419l-9.054-2.469A12.89,12.89,0,1,0,119,151.792Zm39.861-10.551a2.345,2.345,0,1,1-2.345,2.345,2.347,2.347,0,0,1,2.345-2.345Zm-14.068,2.345a2.345,2.345,0,1,1-2.345,2.345,2.347,2.347,0,0,1,2.345-2.345ZM119,128.345A10.551,10.551,0,1,1,108.447,138.9,10.564,10.564,0,0,1,119,128.345Zm0,0" fill="#fff"/>
                              <path id="Path_793" data-name="Path 793" d="M124.86,279.379h-2.82a4.247,4.247,0,0,0-3.783-2.345H115.05a4.256,4.256,0,0,0-4.094,5.427l2.065,7.233-4.574,6.1a11.724,11.724,0,0,0,9.379,18.758h2.345a11.631,11.631,0,0,0,4.689-.986v.986h11.724V270H124.86Zm-9.81,0h3.207a1.915,1.915,0,0,1,1.914,1.914v2.776h2.345v-2.345h2.546a2.144,2.144,0,0,1,1.516,3.659l-3.375,3.375h-8.008l-1.984-6.942a1.867,1.867,0,0,1-.074-.524,1.915,1.915,0,0,1,1.914-1.914Zm2.776,32.827a9.379,9.379,0,0,1-7.5-15.007l4.572-6.1H123.1l4.572,6.1a9.379,9.379,0,0,1-7.5,15.007Zm16.413-39.861v39.861H127.2v-.022a11.7,11.7,0,0,0,2.345-16.391l-4.314-5.752,3-3a4.464,4.464,0,0,0-1.03-7.092v-7.6Zm0,0" transform="translate(0 -115.863)" fill="#fff"/>
                              <path id="Path_794" data-name="Path 794" d="M274.1,343.516h11.724V306H274.1Zm2.345-35.171h7.034v32.827h-7.034Zm0,0" transform="translate(-135.173 -144.829)" fill="#fff"/>
                              <path id="Path_795" data-name="Path 795" d="M346.1,319.378h11.724V276H346.1Zm2.345-41.033h7.034v38.688h-7.034Zm0,0" transform="translate(-193.105 -120.691)" fill="#fff"/>
                              <path id="Path_796" data-name="Path 796" d="M418.1,362.827h11.724V330H418.1Zm2.345-30.482h7.034v28.137h-7.034Zm0,0" transform="translate(-251.036 -164.139)" fill="#fff"/>
                            </g>
                        </svg>