 <svg xmlns="http://www.w3.org/2000/svg" width="72.433" height="72.687" viewBox="0 0 72.433 72.687">
                            <g id="Group_784" data-name="Group 784" transform="translate(889 -586)" style="isolation: isolate">
                              <path id="Path_802" data-name="Path 802" d="M107.471,268.863h-1.912l-.661-.661a15.519,15.519,0,1,0-1.7,1.707l.661.661v1.9l12.024,12,3.583-3.583Zm-14.429,0a10.822,10.822,0,1,1,10.822-10.822A10.823,10.823,0,0,1,93.042,268.863Z" transform="translate(-936.037 374.217)" fill="#fff"/>
                              <g id="Group_783" data-name="Group 783" transform="translate(-889 586)">
                                <path id="Path_803" data-name="Path 803" d="M1258.9,1046.987v12.429h2.348a16.443,16.443,0,0,1,.523-2.072h-.8v-8.286h2.072v5.357a16.619,16.619,0,0,1,2.072-2.933v-4.5Z" transform="translate(-1229.894 -1014.877)" fill="#fff"/>
                                <path id="Path_804" data-name="Path 804" d="M1122,907.593h-29.03V870.3h47.952a7.247,7.247,0,0,0,1.146,2.263l-6.335,6.336a3,3,0,0,0-2.663,0l-2.087-2.087a3.108,3.108,0,1,0-5.593,0l-5.195,5.194a3.1,3.1,0,1,0,1.776,2.8h0a3.063,3.063,0,0,0-.312-1.331l5.195-5.195a3,3,0,0,0,2.663,0l2.087,2.087a3.108,3.108,0,1,0,5.594,0l6.335-6.336a7.21,7.21,0,0,0,3.3,1.369v20.876s1.419,1.063,2.072,1.586V875.4a7.247,7.247,0,1,0-8.286-7.168H1090.9v41.432h31.112c-.025-.369-.038-.741-.038-1.117C1121.97,908.227,1121.98,907.909,1122,907.593Zm-3.135-21.752a1.036,1.036,0,1,1,1.036-1.036A1.036,1.036,0,0,1,1118.862,885.841Zm9.322-9.322a1.036,1.036,0,1,1,1.036-1.036A1.037,1.037,0,0,1,1128.184,876.519Zm6.215,6.215a1.036,1.036,0,1,1,1.036-1.036A1.036,1.036,0,0,1,1134.4,882.734Zm13.465-19.68a5.179,5.179,0,1,1-5.179,5.179A5.179,5.179,0,0,1,1147.864,863.054Z" transform="translate(-1090.896 -860.981)" fill="#fff"/>
                                <rect id="Rectangle_1497" data-name="Rectangle 1497" width="2" height="2" transform="translate(4 11)" fill="#fff"/>
                                <rect id="Rectangle_1498" data-name="Rectangle 1498" width="15" height="2" transform="translate(8 11)" fill="#fff"/>
                                <rect id="Rectangle_1499" data-name="Rectangle 1499" width="2" height="2" transform="translate(4 16)" fill="#fff"/>
                                <rect id="Rectangle_1500" data-name="Rectangle 1500" width="15" height="2" transform="translate(8 16)" fill="#fff"/>
                                <rect id="Rectangle_1501" data-name="Rectangle 1501" width="2" height="2" transform="translate(4 20)" fill="#fff"/>
                                <rect id="Rectangle_1502" data-name="Rectangle 1502" width="15" height="2" transform="translate(8 20)" fill="#fff"/>
                                <rect id="Rectangle_1503" data-name="Rectangle 1503" width="2" height="2" transform="translate(4 24)" fill="#fff"/>
                                <rect id="Rectangle_1504" data-name="Rectangle 1504" width="15" height="2" transform="translate(8 24)" fill="#fff"/>
                                <path id="Path_805" data-name="Path 805" d="M1114.9,1069.345h6.215v-10.358H1114.9Zm2.072-8.286h2.072v6.215h-2.072Z" transform="translate(-1110.753 -1024.805)" fill="#fff"/>
                                <path id="Path_806" data-name="Path 806" d="M1162.9,1079.273h6.215v-8.286H1162.9Zm2.072-6.215h2.072v4.143h-2.072Z" transform="translate(-1150.467 -1034.734)" fill="#fff"/>
                                <path id="Path_807" data-name="Path 807" d="M1210.9,1039.56h6.215v-16.573H1210.9Zm2.072-14.5h2.072v12.429h-2.072Z" transform="translate(-1190.18 -995.02)" fill="#fff"/>
                              </g>
                            </g>
                        </svg>