<svg xmlns="http://www.w3.org/2000/svg" width="72.687" height="72.687" viewBox="0 0 72.687 72.687">
                            <g id="Group_647" data-name="Group 647" transform="translate(2982 -2611)">
                              <path id="Path_114" data-name="Path 114" d="M132.057,288.687H136.9a1.211,1.211,0,0,0,1.211-1.211V279h29.075v8.48a1.211,1.211,0,0,0,1.211,1.211h29.075a1.211,1.211,0,0,0,1.211-1.211V269.3a1.212,1.212,0,0,0-.355-.857l-2.068-2.068V217.211A1.211,1.211,0,0,0,195.053,216h-63A6.064,6.064,0,0,0,126,222.057V282.63a6.064,6.064,0,0,0,6.057,6.057Zm48.458-2.423V274.15h4.846v12.115Zm15.749,0h-8.48V272.938a1.211,1.211,0,0,0-1.211-1.211H179.3a1.211,1.211,0,0,0-1.211,1.211v13.326h-8.48V269.806l13.326-13.326,5.2,5.2a1.211,1.211,0,0,0,2.068-.856v-3.634h3.634v9.692a1.212,1.212,0,0,0,.355.857l2.068,2.068Zm-64.207-67.841h61.784v36.344H189a1.211,1.211,0,0,0-1.211,1.211V257.9l-3.989-3.989a1.211,1.211,0,0,0-1.713,0l-14.537,14.537a1.212,1.212,0,0,0-.355.857v7.269H138.115V226.9a1.211,1.211,0,0,0-1.211-1.211h-4.846a3.634,3.634,0,1,1,0-7.269Zm-3.634,8.477a6.026,6.026,0,0,0,3.634,1.215h3.634v58.15h-3.634a3.638,3.638,0,0,1-3.634-3.634Zm0,0" transform="translate(-3108 2395)" fill="#fff"/>
                              <path id="Path_115" data-name="Path 115" d="M205.211,289.612h7.269a1.211,1.211,0,0,0,1.211-1.211,3.642,3.642,0,0,1,2.423-3.427V288.4a1.211,1.211,0,0,0,1.211,1.211h8.48a1.211,1.211,0,0,0,1.211-1.211V272.652h24.229a1.211,1.211,0,0,0,1.211-1.211V247.211A1.211,1.211,0,0,0,251.247,246H205.211A1.211,1.211,0,0,0,204,247.211V288.4a1.211,1.211,0,0,0,1.211,1.211Zm44.824-19.383H235.5v-2.423h3.634a1.211,1.211,0,0,0,1.211-1.211,6.067,6.067,0,0,0-4.846-5.935V248.423h14.537Zm-30.286-21.806v12.115h-1.211v2.423h2.423a1.211,1.211,0,0,0,1.211-1.211V248.423h10.9v13.326a1.211,1.211,0,0,0,1.211,1.211,3.642,3.642,0,0,1,3.427,2.423h-3.427a1.211,1.211,0,0,0-1.211,1.211v3.634h-7.269a1.211,1.211,0,0,0-1.211,1.211v15.749h-6.057v-3.634a1.211,1.211,0,0,0-1.211-1.211,6.067,6.067,0,0,0-5.935,4.846h-4.968V262.96h8.48v-2.423h-8.48V248.423Zm0,0" transform="translate(-3170.251 2371.057)" fill="#fff"/>
                              <rect id="Rectangle_48" data-name="Rectangle 48" width="2.423" height="2.423" transform="translate(-2967.463 2666.727)" fill="#fff"/>
                              <rect id="Rectangle_49" data-name="Rectangle 49" width="2.423" height="2.423" transform="translate(-2962.617 2666.727)" fill="#fff"/>
                              <rect id="Rectangle_50" data-name="Rectangle 50" width="2.423" height="2.423" transform="translate(-2957.771 2666.727)" fill="#fff"/>
                            </g>
                        </svg>