<svg xmlns="http://www.w3.org/2000/svg" xmlns:xlink="http://www.w3.org/1999/xlink" width="90.038" height="72.687" viewBox="0 0 90.038 72.687">
  <defs>
    <clipPath id="clip-path">
      <rect id="Rectangle_59" data-name="Rectangle 59" width="90.038" height="72.687" fill="#fff"/>
    </clipPath>
  </defs>
  <g id="Group_650" data-name="Group 650" transform="translate(2091 -2611)">
    <g id="Group_180" data-name="Group 180" transform="translate(-2091 2611)">
      <g id="Group_179" data-name="Group 179" transform="translate(0 0)" clip-path="url(#clip-path)">
        <path id="Path_130" data-name="Path 130" d="M595.33,375.564a29.544,29.544,0,0,0-5.9-12.5l-.022-.027a1.758,1.758,0,0,0-2.748,2.2l.025.03A26.087,26.087,0,0,1,591.89,376.3a30.883,30.883,0,0,1-.128,13.073,40.515,40.515,0,0,1-14.1,22.411,39.086,39.086,0,0,1-24.554,9.271,29.288,29.288,0,0,1-12.3-2.584,25.514,25.514,0,0,1-9.335-7.227,26.032,26.032,0,0,1-5.141-10.75h3.6a22.555,22.555,0,0,0,4.276,8.543c4.42,5.482,11.129,8.5,18.893,8.5.351,0,.7-.008,1.053-.021a1.639,1.639,0,0,0,.673-.031,36.013,36.013,0,0,0,20.594-8.419,36.984,36.984,0,0,0,12.893-20.439s0-.007,0-.009a.149.149,0,0,0,0-.019c1.724-7.979.168-15.482-4.384-21.127-4.414-5.474-11.112-8.492-18.862-8.5h-.03a35.573,35.573,0,0,0-22.321,8.47,36.995,36.995,0,0,0-12.893,20.44.041.041,0,0,0,0,.01c0,.006,0,.011,0,.016a28.431,28.431,0,0,0-.532,9.069h-3.526a31.8,31.8,0,0,1,.627-9.841,40.513,40.513,0,0,1,14.1-22.411,39.085,39.085,0,0,1,24.553-9.271,30,30,0,0,1,9.875,1.614,1.759,1.759,0,0,0,1.155-3.322,33.518,33.518,0,0,0-11.029-1.809,42.278,42.278,0,0,0-25.392,8.969H517.79a1.759,1.759,0,0,0,0,3.517h17.759a43.5,43.5,0,0,0-12.583,21.967,35.384,35.384,0,0,0-.72,10.586h-6.575a1.759,1.759,0,0,0,0,3.517h7.076c.029.15.058.3.09.452a29.556,29.556,0,0,0,5.907,12.507,29.023,29.023,0,0,0,10.608,8.218,32.8,32.8,0,0,0,13.76,2.9A42.606,42.606,0,0,0,579.9,414.5a44.052,44.052,0,0,0,15.3-24.383,34.391,34.391,0,0,0,.13-14.554Zm-62.316,14.449h1.978a1.759,1.759,0,1,0,0-3.517h-1.165a34,34,0,0,1,11.139-16.336,32.7,32.7,0,0,1,17.887-7.578l-.262,1.209a1.759,1.759,0,0,0,1.346,2.092,1.812,1.812,0,0,0,.374.04,1.76,1.76,0,0,0,1.717-1.387l.435-2.007a19.877,19.877,0,0,1,14.745,7.151c3.616,4.485,5,10.412,3.942,16.815h-1.977a1.759,1.759,0,1,0,0,3.517h1.164A33.989,33.989,0,0,1,573.2,406.349a33.092,33.092,0,0,1-16.55,7.436l.232-1.067s-.4-1.886-1.345-2.092a1.757,1.757,0,0,0-2.091,1.345L553,414.018c-6.631-.028-12.325-2.578-16.044-7.19a18.943,18.943,0,0,1-3.354-6.335h7.5a1.759,1.759,0,0,0,0-3.517h-8.255a24.172,24.172,0,0,1,.166-6.964Zm0,0" transform="translate(-506.008 -351.911)" fill="#fff"/>
      </g>
    </g>
    <path id="Path_131" data-name="Path 131" d="M670.932,455.506a1.749,1.749,0,0,0,1.115-.4l7.008-5.758a1.759,1.759,0,0,0,.6-.985l3.528-16.261a1.759,1.759,0,1,0-3.437-.746l-3.4,15.664-6.535,5.37a1.759,1.759,0,0,0,1.117,3.118Zm0,0" transform="translate(-2715.863 2199.355)" fill="#fff"/>
    <path id="Path_132" data-name="Path 132" d="M481.96,458.29h12.006a1.759,1.759,0,0,0,0-3.517H481.96a1.759,1.759,0,1,0,0,3.517Zm0,0" transform="translate(-2571.201 2180.366)" fill="#fff"/>
    <g id="Group_182" data-name="Group 182" transform="translate(-2091 2611)">
      <g id="Group_181" data-name="Group 181" transform="translate(0 0)" clip-path="url(#clip-path)">
        <path id="Path_133" data-name="Path 133" d="M510.851,612.269H501.7a1.759,1.759,0,1,0,0,3.517h9.154a1.759,1.759,0,1,0,0-3.517Zm0,0" transform="translate(-495.311 -551.201)" fill="#fff"/>
        <path id="Path_134" data-name="Path 134" d="M483.592,545.188a1.757,1.757,0,1,0-.712,2.176,1.771,1.771,0,0,0,.712-2.176Zm0,0" transform="translate(-480.21 -499.036)" fill="#fff"/>
      </g>
    </g>
    <path id="Path_135" data-name="Path 135" d="M799.4,377.264a1.758,1.758,0,1,0,.952-2.3,1.776,1.776,0,0,0-.952,2.3Zm0,0" transform="translate(-2815.459 2241.56)" fill="#fff"/>
  </g>
</svg>
