<svg xmlns="http://www.w3.org/2000/svg" width="92.509" height="72.687" viewBox="0 0 92.509 72.687">
                            <g id="Group_649" data-name="Group 649" transform="translate(2400 -2611)">
                              <path id="Path_116" data-name="Path 116" d="M-233.595,74.576-246.81,61.361a3.3,3.3,0,0,0-4.672.081,3.3,3.3,0,0,0,0,4.59l7.579,7.579h-18.455a23.154,23.154,0,0,0-23.127,23.127A16.539,16.539,0,0,1-302,113.257h-19.823a3.3,3.3,0,0,0-3.3,3.3,3.3,3.3,0,0,0,3.3,3.3H-302a23.154,23.154,0,0,0,23.127-23.127,16.539,16.539,0,0,1,16.519-16.519H-243.9l-7.575,7.576a3.3,3.3,0,0,0-.081,4.672,3.3,3.3,0,0,0,4.672.081c.028-.027.055-.054.081-.081l13.215-13.215a3.3,3.3,0,0,0,.006-4.672l-.006-.006Z" transform="translate(-2074.87 2550.567)" fill="#fff"/>
                              <path id="Path_117" data-name="Path 117" d="M-40.833,279.376l-13.215-13.215a3.3,3.3,0,0,0-4.672.081,3.3,3.3,0,0,0,0,4.59l7.579,7.579H-69.6a16.5,16.5,0,0,1-11.015-4.206,3.3,3.3,0,0,0-4.663.3,3.3,3.3,0,0,0,.255,4.622A23.091,23.091,0,0,0-69.6,285.019h18.455l-7.575,7.576a3.3,3.3,0,0,0-.081,4.672,3.3,3.3,0,0,0,4.672.081l.081-.081,13.215-13.215a3.3,3.3,0,0,0,.006-4.672l-.006-.006Z" transform="translate(-2267.632 2385.412)" fill="#fff"/>
                              <path id="Path_118" data-name="Path 118" d="M-321.826,135.115H-302a16.5,16.5,0,0,1,11.015,4.206,3.3,3.3,0,0,0,4.663-.3,3.3,3.3,0,0,0-.255-4.622A23.091,23.091,0,0,0-302,128.507h-19.823a3.3,3.3,0,0,0-3.3,3.3A3.3,3.3,0,0,0-321.826,135.115Z" transform="translate(-2074.87 2495.671)" fill="#fff"/>
                            </g>
                        </svg>