<svg xmlns="http://www.w3.org/2000/svg" width="145.586" height="136.771" viewBox="0 0 145.586 136.771">
  <g id="Group_7922" data-name="Group 7922" transform="translate(-111.28 -215.949)" style="isolation: isolate">
    <path id="Path_103" data-name="Path 103" d="M226.928,215.949h-85.71a29.939,29.939,0,0,0,0,59.878h21.8v24.187l-1.065-.893a13.858,13.858,0,0,0-18.351.8,11.971,11.971,0,0,0,.778,17.824l18.636,15.638v15.072a4.265,4.265,0,0,0,4.265,4.265h51.183a4.264,4.264,0,0,0,4.265-4.265V300.526a12.815,12.815,0,0,0-11.214-12.7l-22.908-2.854v-9.15h38.32a29.938,29.938,0,1,0,0-59.876ZM171.547,344.19v-8.53H214.2v8.53Zm38.916-47.9a4.274,4.274,0,0,1,3.738,4.233v26.6H168.835L149.863,311.21a3.453,3.453,0,0,1-.229-5.256,5.3,5.3,0,0,1,6.836-.3l8.07,6.773a4.269,4.269,0,0,0,7.008-3.267V254.62a4.265,4.265,0,0,1,8.531,0v34.122a4.265,4.265,0,0,0,3.738,4.233Zm16.466-29h-38.32V254.62a12.8,12.8,0,0,0-25.592,0v12.674h-21.8a21.408,21.408,0,0,1,0-42.815h85.71a21.408,21.408,0,0,1,0,42.815Zm0,0" fill="#fff"/>
    <path id="Path_104" data-name="Path 104" d="M363.795,262.2l-14.044,14.044-5.516-5.514a4.265,4.265,0,0,0-6.032,6.032l8.531,8.53a4.266,4.266,0,0,0,6.032,0l17.061-17.061a4.265,4.265,0,0,0-6.032-6.032Zm0,0" transform="translate(-140.115 -27.94)" fill="#fff"/>
  </g>
</svg>
