<svg xmlns="http://www.w3.org/2000/svg" width="136.72" height="136.72" viewBox="0 0 136.72 136.72">
  <g id="Group_165" data-name="Group 165" transform="translate(-374.22 -5742.152)">
    <g id="Group_157" data-name="Group 157" transform="translate(374.22 5742.152)">
      <path id="Path_95" data-name="Path 95" d="M233.641,522H220.41a4.415,4.415,0,0,0-4.41,4.41v4.41a4.415,4.415,0,0,0,4.41,4.41h13.231a4.415,4.415,0,0,0,4.41-4.41v-4.41a4.415,4.415,0,0,0-4.41-4.41Zm-13.231,8.821v-4.41h13.231l0,4.41Zm0,0" transform="translate(-180.717 -407.331)" fill="#fff"/>
      <path id="Path_96" data-name="Path 96" d="M152.821,522h-4.41a4.415,4.415,0,0,0-4.41,4.41v4.41a4.415,4.415,0,0,0,4.41,4.41h4.41a4.415,4.415,0,0,0,4.41-4.41v-4.41a4.415,4.415,0,0,0-4.41-4.41Zm-4.41,8.821v-4.41h4.41l0,4.41Zm0,0" transform="translate(-135.179 -407.331)" fill="#fff"/>
      <path id="Path_97" data-name="Path 97" d="M320.821,522h-4.41a4.415,4.415,0,0,0-4.41,4.41v4.41a4.415,4.415,0,0,0,4.41,4.41h4.41a4.415,4.415,0,0,0,4.41-4.41v-4.41a4.415,4.415,0,0,0-4.41-4.41Zm-4.41,8.821v-4.41h4.41l0,4.41Zm0,0" transform="translate(-241.435 -407.331)" fill="#fff"/>
      <path id="Path_98" data-name="Path 98" d="M232.463,218.821a24.1,24.1,0,0,0-11.026,2.677V210h-83.8v13.231h-6.616A11.038,11.038,0,0,0,120,234.257V335.694a11.038,11.038,0,0,0,11.026,11.026h70.565a11.038,11.038,0,0,0,11.026-11.026v-63.95h8.821v-7.088a24.247,24.247,0,1,0,11.026-45.836ZM169.534,247.1l-27.483,18.323V217.78Zm-18.662,24.647v25.17l10.113,10.113H164.1v4.41h4.41v-4.41h3.118l10.113-10.113v-25.17h17.641v44.1H133.231V245.283h4.41v26.462Zm11.939,30.872-4.41-4.41h15.815l-4.41,4.41Zm14.523-8.821H155.283v-4.41h13.231v-4.41H155.283v-4.41H164.1v-4.41h-8.821v-4.41h22.052Zm-30.2-26.462,26.462-17.641h11.9l26.462,17.641ZM185.2,245.283H173.879L144.936,214.41h69.207Zm23.007,90.412a6.623,6.623,0,0,1-6.616,6.615H131.026a6.623,6.623,0,0,1-6.615-6.615V234.257a6.623,6.623,0,0,1,6.615-6.615h6.616v13.231h-4.41a4.415,4.415,0,0,0-4.41,4.41v70.565a4.415,4.415,0,0,0,4.41,4.41h66.155a4.415,4.415,0,0,0,4.41-4.41v-44.1h4.41Zm8.821-70.274L189.545,247.1l27.483-29.318v6.6a24.228,24.228,0,0,0,0,37.4Zm15.436-2.5a19.846,19.846,0,1,1,19.846-19.846,19.869,19.869,0,0,1-19.846,19.846Zm0,0" transform="translate(-120 -210)" fill="#fff"/>
      <rect id="Rectangle_42" data-name="Rectangle 42" width="4.41" height="4.41" transform="translate(46.308 8.821)" fill="#fff"/>
      <rect id="Rectangle_43" data-name="Rectangle 43" width="4.41" height="4.41" transform="translate(55.129 8.821)" fill="#fff"/>
      <rect id="Rectangle_44" data-name="Rectangle 44" width="4.41" height="4.41" transform="translate(37.488 8.821)" fill="#fff"/>
    </g>
    <path id="Polygon_2" data-name="Polygon 2" d="M5.57,5.717a4,4,0,0,1,6.86,0l1.935,3.225A4,4,0,0,1,10.935,15H7.065a4,4,0,0,1-3.43-6.058Z" transform="translate(497 5766) rotate(90)" fill="#fff"/>
  </g>
</svg>
