<svg xmlns="http://www.w3.org/2000/svg" xmlns:xlink="http://www.w3.org/1999/xlink" width="137.009" height="154" viewBox="0 0 137.009 154">
  <defs>
    <clipPath id="clip-path">
      <rect id="Rectangle_46" data-name="Rectangle 46" width="137" height="154" transform="translate(0 -0.01)" fill="#fff"/>
    </clipPath>
  </defs>
  <g id="Group_7923" data-name="Group 7923" transform="translate(-131.78 -203.837)" style="isolation: isolate">
    <path id="Path_105" data-name="Path 105" d="M240.05,302.428a5.012,5.012,0,0,0-.784-2.982,4.363,4.363,0,0,0-2.046-1.416c1.713-.728,2.337-2.448,2.337-4.313,0-2.686-1.333-4.193-3.49-4.674a9.3,9.3,0,0,0-2.006-.219h-5.634c-.849,0-1.869.375-1.869,1.319v17.478c0,.862.946,1.292,1.869,1.292h6.1c2.381,0,4.236-.881,5.1-3.161a9.46,9.46,0,0,0,.425-3.325Zm-9.235-9.866H233.7c1.065,0,1.567.973,1.567,1.923,0,.92-.48,1.9-1.567,1.9h-2.885Zm4.371,12.01a2.132,2.132,0,0,1-1.621.6h-2.749v-5.5h2.749c1.651,0,2.2.96,2.2,2.529a3.544,3.544,0,0,1-.578,2.363Zm0,0" transform="translate(-56.806 -50.932)" fill="#fff"/>
    <path id="Path_106" data-name="Path 106" d="M277.295,288.821c-.973,0-2.142.313-2.142,1.292V302.59a2.641,2.641,0,1,1-5.277,0V290.113c0-.914-1.111-1.292-2.144-1.292-.973,0-2.142.313-2.142,1.292V302.59c0,4.171,2.4,6.487,6.925,6.487,4.654,0,6.925-2.444,6.925-6.487V290.113c0-.917-1.127-1.292-2.144-1.292Zm0,0" transform="translate(-80.2 -50.929)" fill="#fff"/>
    <path id="Path_107" data-name="Path 107" d="M318.88,289.311a4.683,4.683,0,0,0-.948-.371c-1.425-.383-1.825.028-2.186.661l-3.82,7.063L308.08,289.6c-.366-.639-.763-1.046-2.185-.661a4.6,4.6,0,0,0-.949.371c-.5.266-1.017.686-1.017,1.25,0,.407-.237-.269,5.744,9.73a.676.676,0,0,1,.109.385v6.9c0,.969,1.254,1.319,2.144,1.319s2.144-.344,2.144-1.319v-6.9a.673.673,0,0,1,.109-.385l5.662-9.426c.3-.61-.349-1.227-.962-1.554Zm0,0" transform="translate(-103.179 -50.911)" fill="#fff"/>
    <g id="Group_163" data-name="Group 163" transform="translate(131.78 203.848)">
      <g id="Group_162" data-name="Group 162" transform="translate(0 0)" clip-path="url(#clip-path)">
        <path id="Path_108" data-name="Path 108" d="M417.821,542.125a2.364,2.364,0,0,0-.336-.81,2.173,2.173,0,0,0-.28-.343,2.114,2.114,0,0,0-.343-.28,2.333,2.333,0,0,0-.811-.337,2.329,2.329,0,0,0-.881,0,2.238,2.238,0,0,0-.421.13,2.239,2.239,0,0,0-.732.486,2.471,2.471,0,0,0-.28.343,2.2,2.2,0,0,0-.206.39,2.152,2.152,0,0,0-.127.421,2.147,2.147,0,0,0,0,.881,2.112,2.112,0,0,0,.127.419,2.209,2.209,0,0,0,.206.391,2.443,2.443,0,0,0,.28.343,2.381,2.381,0,0,0,.343.28,2.293,2.293,0,0,0,.389.206,2.181,2.181,0,0,0,.862.172,2.431,2.431,0,0,0,.44-.042,2.32,2.32,0,0,0,.811-.336,2.2,2.2,0,0,0,.343-.28,2.205,2.205,0,0,0,.487-.734,2.232,2.232,0,0,0,.13-1.3Zm0,0" transform="translate(-300.545 -405.511)" fill="#fff"/>
        <path id="Path_109" data-name="Path 109" d="M426.21,204.15a2.254,2.254,0,0,0-3.078.825l-3.843,6.656a2.253,2.253,0,0,0,3.9,2.254l3.843-6.656a2.253,2.253,0,0,0-.825-3.079Zm0,0" transform="translate(-303.92 -203.848)" fill="#fff"/>
      </g>
    </g>
    <path id="Path_110" data-name="Path 110" d="M447.661,229.811a2.254,2.254,0,0,0-3.078-.824l-6.655,3.842a2.253,2.253,0,1,0,2.254,3.9l6.655-3.842a2.252,2.252,0,0,0,.825-3.079Zm0,0" transform="translate(-182.817 -14.886)" fill="#fff"/>
    <path id="Path_111" data-name="Path 111" d="M453.261,262.61h-7.684a2.254,2.254,0,1,0,0,4.507h7.684a2.254,2.254,0,0,0,0-4.507Zm0,0" transform="translate(-186.726 -35.22)" fill="#fff"/>
    <path id="Path_112" data-name="Path 112" d="M218.424,244.313H141.38a9.584,9.584,0,0,0-9.573,9.573v35.762a9.584,9.584,0,0,0,9.573,9.573h10.637a2.254,2.254,0,0,0,0-4.507H141.38a5.073,5.073,0,0,1-5.066-5.066V253.886a5.071,5.071,0,0,1,5.066-5.066h77.044a2.254,2.254,0,1,0,0-4.507Zm0,0" transform="translate(-0.016 -24.253)" fill="#fff"/>
    <path id="Path_113" data-name="Path 113" d="M271.006,378.018c-.282-2.222-.62-4.542-1-6.894a2.253,2.253,0,1,0-4.448.726c.31,1.9.588,3.773.831,5.59H234.4c-.7-4.338-1.59-8.67-2.659-12.914l30.6-8.2c.431,1.717.85,3.5,1.25,5.312a2.253,2.253,0,1,0,4.4-.972c-.587-2.662-1.213-5.248-1.857-7.683a2.241,2.241,0,0,0-1.323-1.5l-2.434-9.085a3,3,0,0,0-3.672-2.119l-.9.241-.835-2.991a1.1,1.1,0,0,1,.018-.649A25.134,25.134,0,0,0,257.394,322l-4.542-16.262a6.4,6.4,0,0,0-7.582-4.529,6.239,6.239,0,0,0-3.707,2.558,6.3,6.3,0,0,0-7.8,2.179,6.289,6.289,0,0,0-5.944.4l-1.991-7.125h26.909a9.583,9.583,0,0,0,9.573-9.573V253.886a9.583,9.583,0,0,0-9.573-9.573H240.327a2.254,2.254,0,1,0,0,4.507h12.413a5.071,5.071,0,0,1,5.065,5.066v35.762a5.071,5.071,0,0,1-5.065,5.066H224.574l-.8-2.864c-.023-.081-.046-.161-.073-.241h28.747a2.254,2.254,0,0,0,2.254-2.254V254.179a2.253,2.253,0,0,0-2.254-2.254H153.056a2.253,2.253,0,0,0-2.254,2.254v35.177a2.254,2.254,0,0,0,2.254,2.254h58.593a6.316,6.316,0,0,0-.141,3.105H173.919a2.254,2.254,0,1,0,0,4.507h38.832l6.5,23.259c-8.206-6.185-7.792-5.9-8.032-6.036a6.4,6.4,0,0,0-8.637,2.228,6.3,6.3,0,0,0,2.192,8.6c5.613,4.34,10.377,7.561,17.2,13.686a15.919,15.919,0,0,1,4.654,7.931,3,3,0,0,0-1.84,3.583l2.433,9.082a2.256,2.256,0,0,0-.395,1.959,147.209,147.209,0,0,1,3.23,15.282,3.709,3.709,0,0,0,3.681,3.153h33.8a3.5,3.5,0,0,0,3.47-3.928ZM155.309,287.1V256.432h94.884V287.1Zm69.671,50.5c-6.534-5.865-17.633-14.051-17.852-14.174a1.792,1.792,0,0,1-.665-2.471,1.865,1.865,0,0,1,2.43-.643l9.048,6.83a3.911,3.911,0,0,0,6.123-4.172l-8.113-29.047a1.788,1.788,0,0,1,1.3-2.222,1.861,1.861,0,0,1,2.174,1.362l6.423,22.994a2.254,2.254,0,0,0,4.341-1.213l-.748-2.676a.008.008,0,0,0,0-.006v0a1.791,1.791,0,0,1,3.452-.96l.749,2.682a2.254,2.254,0,1,0,4.342-1.213l-.75-2.681a1.791,1.791,0,1,1,3.45-.966h0l.75,2.683a2.253,2.253,0,1,0,4.34-1.214l-.748-2.681a1.791,1.791,0,0,1,1.3-2.222,1.861,1.861,0,0,1,2.174,1.362l4.541,16.26a20.631,20.631,0,0,1-.331,12.22c-.822,2.421.264,4.047.732,6.255l-22.478,6.022A19.715,19.715,0,0,0,224.98,337.6Zm4.548,15.159,28.885-7.739,1.922,7.176-28.885,7.74Zm0,0" transform="translate(-11.401 -24.253)" fill="#fff"/>
  </g>
</svg>
