<svg id="Group_791" data-name="Group 791" xmlns="http://www.w3.org/2000/svg" width="238.713" height="101.664" viewBox="0 0 238.713 101.664">
  <path id="Path_808" data-name="Path 808" d="M12.02,25.21V63.345L0,72.647V0L24.866,19.8l-9.94,7.907ZM52.467,41.5V60.278L0,101.664V85.628L40.215,54.174V47.446l-24.242-18.9L52.467,0V15.7L36.029,28.551Z" fill="#fff"/>
  <path id="Path_809" data-name="Path 809" d="M437.56,587.8h-1.906v-5.115l6.094-4.744v-2.558l-6.094-4.838V563.8l10.652,8.558v8.6Zm-9.254-12.138-4.93,4.279h-6L407.238,587.8v-6.464l22.835-17.951h4.512v2.557l-11.768,9.72Zm1.721-4.744,4.558-3.626V587.8h-4.558Z" transform="translate(-363.817 -503.317)" fill="#fff"/>
  <g id="Group_787" data-name="Group 787" transform="translate(57.927 19.978)">
    <path id="Path_810" data-name="Path 810" d="M543.287,206.128V191.6l1.055-.5h5.312q3.482,0,3.482,3.482v8.058q0,3.482-3.482,3.482Zm1.99-1.791h4.377q1.492,0,1.492-1.691v-8.058q0-1.691-1.492-1.691h-4.377Z" transform="translate(-543.287 -190.708)" fill="#fff"/>
    <path id="Path_811" data-name="Path 811" d="M671.3,236.97a2.638,2.638,0,0,1-2.985-2.985v-7.461l1.89-.9h.1v8.357q0,1.194.995,1.194h2.288q.995,0,.995-1.194v-7.461l1.89-.9h.1v12.436a2.638,2.638,0,0,1-2.984,2.985h-4.238v-.1l.8-1.691h3.442q.995,0,.995-1.194v-1.393a1.585,1.585,0,0,1-.995.3Z" transform="translate(-654.986 -221.55)" fill="#fff"/>
    <path id="Path_812" data-name="Path 812" d="M778.418,240.7v-8.357a2.638,2.638,0,0,1,2.984-2.985h2.288a2.638,2.638,0,0,1,2.985,2.985v7.461l-1.89.9h-.1v-8.357q0-1.194-.995-1.194H781.4q-.995,0-.995,1.194v7.461l-1.89.9Z" transform="translate(-753.348 -224.884)" fill="#fff"/>
    <path id="Path_813" data-name="Path 813" d="M882.173,240.3a2.638,2.638,0,0,1-2.985-2.985v-1.363a2.638,2.638,0,0,1,2.985-2.985h2.089a1.85,1.85,0,0,1,.995.3v-.925q0-1.194-.995-1.194H880.7v-.1l.8-1.691h2.766a2.638,2.638,0,0,1,2.984,2.985v7.461l-1.89.9h-.1v-.7a1.559,1.559,0,0,1-.995.3Zm0-1.791h2.089q.995,0,.995-1.194v-1.363q0-1.194-.995-1.194h-2.089q-.995,0-.995,1.194v1.363Q881.178,238.514,882.173,238.514Z" transform="translate(-843.373 -224.884)" fill="#fff"/>
    <path id="Path_814" data-name="Path 814" d="M982.758,240.7v-8.357a2.638,2.638,0,0,1,2.984-2.985h2.288a2.457,2.457,0,0,1,1.99.736,2.53,2.53,0,0,1,1.99-.736H994.3a2.638,2.638,0,0,1,2.985,2.985v7.461l-1.89.9h-.1v-8.357q0-1.194-.995-1.194H992.01q-.995,0-.995,1.194v7.461l-1.89.9h-.1v-8.357q0-1.194-.995-1.194h-2.288q-1,0-.995,1.194v7.461l-1.89.9Z" transform="translate(-935.901 -224.884)" fill="#fff"/>
    <path id="Path_815" data-name="Path 815" d="M1150.122,191.319a1.238,1.238,0,0,1,0-1.721,1.177,1.177,0,0,1,1.691,0,1.237,1.237,0,0,1,0,1.721,1.177,1.177,0,0,1-1.691,0Zm-.149,13.54V194.015l1.89-.9h.1v10.844l-1.89.9Z" transform="translate(-1085.109 -189.041)" fill="#fff"/>
    <path id="Path_816" data-name="Path 816" d="M1205.943,240.3a2.638,2.638,0,0,1-2.984-2.985v-4.974a2.638,2.638,0,0,1,2.984-2.985h2.288a2.638,2.638,0,0,1,2.984,2.985v.527l-1.89.9h-.1v-1.423q0-1.194-.995-1.194h-2.288q-.995,0-.995,1.194v4.974q0,1.194.995,1.194h2.288q.995,0,.995-1.194v-.527l1.891-.9h.1v1.423a2.638,2.638,0,0,1-2.984,2.985Z" transform="translate(-1132.623 -224.884)" fill="#fff"/>
    <path id="Path_817" data-name="Path 817" d="M1311.761,240.3a2.638,2.638,0,0,1-2.984-2.985v-4.974a2.638,2.638,0,0,1,2.984-2.985h2.288a2.638,2.638,0,0,1,2.985,2.985v4.974a2.638,2.638,0,0,1-2.985,2.985Zm0-1.791h2.288q.995,0,.995-1.194v-4.974q0-1.194-.995-1.194h-2.288q-.995,0-.995,1.194v4.974Q1310.767,238.514,1311.761,238.514Z" transform="translate(-1227.158 -224.884)" fill="#fff"/>
    <path id="Path_818" data-name="Path 818" d="M1493.272,206.128q-3.482,0-3.482-3.482v-1.094l1.89-.9h.1v1.99q0,1.691,1.492,1.691h3.084q1.492,0,1.492-1.691v-2.089q0-1.691-1.492-1.691h-2.686a2.638,2.638,0,0,1-2.985-2.984V194.09a2.638,2.638,0,0,1,2.985-2.984h2.288a2.638,2.638,0,0,1,2.985,2.984v.527l-1.89.9h-.1V194.09q0-1.194-.995-1.194h-2.288q-.995,0-.995,1.194v1.791q0,1.194.995,1.194h2.686q3.482,0,3.482,3.482v2.089q0,3.482-3.482,3.482Z" transform="translate(-1388.871 -190.708)" fill="#fff"/>
    <path id="Path_819" data-name="Path 819" d="M1615.938,236.97a2.638,2.638,0,0,1-2.984-2.985v-7.461l1.89-.9h.1v8.357q0,1.194.995,1.194h2.288q.995,0,.995-1.194v-7.461l1.891-.9h.1v12.436a2.638,2.638,0,0,1-2.984,2.985h-4.238v-.1l.8-1.691h3.442q.995,0,.995-1.194v-1.393a1.585,1.585,0,0,1-.995.3Z" transform="translate(-1498.903 -221.55)" fill="#fff"/>
    <path id="Path_820" data-name="Path 820" d="M1723.24,240.3a2.638,2.638,0,0,1-2.985-2.985v-.358l1.89-.9h.1v1.253q0,1.194.995,1.194h2.288q.995,0,.995-1.194v-.786q0-1.194-.995-1.194h-1.87q-2.985,0-2.985-2.995a2.638,2.638,0,0,1,2.985-2.985h1.164q2.985,0,2.984,2.408l-1.89.9h-.1v-.318q0-1.194-.995-1.194h-1.164q-.995,0-.995,1.194t.995,1.2h1.87a2.638,2.638,0,0,1,2.985,2.984v.786a2.638,2.638,0,0,1-2.985,2.985Z" transform="translate(-1594.764 -224.884)" fill="#fff"/>
    <path id="Path_821" data-name="Path 821" d="M1814.168,203.191v-9.531h-2.557v-.1l.806-1.711h1.751v-3.581l1.89-.9h.1v4.477h2.557v.1l-.806,1.711h-1.751V202.3l-1.89.9Z" transform="translate(-1676.379 -187.373)" fill="#fff"/>
    <path id="Path_822" data-name="Path 822" d="M1897.545,240.3a2.638,2.638,0,0,1-2.984-2.985v-4.974a2.638,2.638,0,0,1,2.984-2.985h2.288a2.638,2.638,0,0,1,2.984,2.985v.527l-6.238,4.823a.883.883,0,0,0,.965.817h2.288q.994,0,.995-1.194v-.527l1.89-.9h.1v1.423a2.638,2.638,0,0,1-2.984,2.985Zm-.995-4.686,4.268-3.3q-.06-1.167-.985-1.167h-2.288q-.995,0-.995,1.194Z" transform="translate(-1750.484 -224.884)" fill="#fff"/>
    <path id="Path_823" data-name="Path 823" d="M2000,240.7v-8.357a2.638,2.638,0,0,1,2.984-2.985h2.288a2.457,2.457,0,0,1,1.99.736,2.531,2.531,0,0,1,1.99-.736h2.288a2.638,2.638,0,0,1,2.985,2.985v7.461l-1.891.9h-.1v-8.357q0-1.194-.995-1.194h-2.288q-.995,0-.995,1.194v7.461l-1.89.9h-.1v-8.357q0-1.194-.995-1.194h-2.288q-.995,0-.995,1.194v7.461l-1.89.9Z" transform="translate(-1844.677 -224.884)" fill="#fff"/>
    <path id="Path_824" data-name="Path 824" d="M2164.4,240.3a2.638,2.638,0,0,1-2.985-2.985v-.358l1.89-.9h.1v1.253q0,1.194.995,1.194h2.288q.995,0,.995-1.194v-.786q0-1.194-.995-1.194h-1.87q-2.985,0-2.985-2.995a2.638,2.638,0,0,1,2.985-2.985h1.164q2.985,0,2.985,2.408l-1.89.9h-.1v-.318q0-1.194-.995-1.194h-1.164q-.995,0-.995,1.194t.995,1.2h1.87a2.638,2.638,0,0,1,2.985,2.984v.786a2.638,2.638,0,0,1-2.985,2.985Z" transform="translate(-1988.884 -224.884)" fill="#fff"/>
  </g>
  <g id="Group_788" data-name="Group 788" transform="translate(86.85 75.974)">
    <path id="Path_825" data-name="Path 825" d="M814.554,722.78V716.4a1.644,1.644,0,0,1,1.86-1.86h1.647a1.644,1.644,0,0,1,1.86,1.86v5.9l-1.01.478h-.053v-3.741h-3.241V722.3l-1.01.478Zm1.063-4.708h3.241V716.4q0-.9-.8-.9h-1.647q-.8,0-.8.9Z" transform="translate(-814.554 -714.331)" fill="#fff"/>
    <path id="Path_826" data-name="Path 826" d="M883.927,739.042a1.409,1.409,0,0,1-1.594-1.594v-3.985l1.01-.478h.053v4.464q0,.638.531.638h1.222q.531,0,.531-.638v-3.985l1.01-.478h.053v4.464a1.409,1.409,0,0,1-1.594,1.594Z" transform="translate(-875.106 -730.805)" fill="#fff"/>
    <path id="Path_827" data-name="Path 827" d="M933.787,721v-5.091h-1.366v-.053l.431-.914h.935v-1.913l1.01-.478h.053v2.391h1.366v.053l-.43.914h-.935v4.613l-1.01.478Z" transform="translate(-919.854 -712.55)" fill="#fff"/>
    <path id="Path_828" data-name="Path 828" d="M978.322,740.822a1.409,1.409,0,0,1-1.594-1.594v-2.657a1.409,1.409,0,0,1,1.594-1.594h1.222a1.409,1.409,0,0,1,1.594,1.594v2.657a1.409,1.409,0,0,1-1.594,1.594Zm0-.956h1.222q.531,0,.531-.638v-2.657q0-.638-.531-.637h-1.222q-.531,0-.531.637v2.657Q977.791,739.866,978.322,739.866Z" transform="translate(-959.437 -732.586)" fill="#fff"/>
    <path id="Path_829" data-name="Path 829" d="M1033.249,741.035v-4.464a1.409,1.409,0,0,1,1.594-1.594h1.222a1.312,1.312,0,0,1,1.063.393,1.352,1.352,0,0,1,1.063-.393h1.222a1.409,1.409,0,0,1,1.594,1.594v3.986l-1.01.478h-.053v-4.464q0-.638-.531-.637h-1.222q-.531,0-.531.637v3.986l-1.01.478h-.053v-4.464q0-.638-.531-.637h-1.222q-.531,0-.531.637v3.986l-1.01.478Z" transform="translate(-1009.931 -732.586)" fill="#fff"/>
    <path id="Path_830" data-name="Path 830" d="M1120.067,740.822a1.409,1.409,0,0,1-1.594-1.594V738.5a1.409,1.409,0,0,1,1.594-1.594h1.116a.989.989,0,0,1,.531.159v-.494q0-.638-.531-.637h-1.9v-.053l.425-.9h1.477a1.409,1.409,0,0,1,1.594,1.594v3.986l-1.01.478h-.053v-.372a.832.832,0,0,1-.531.159Zm0-.956h1.116q.531,0,.531-.638V738.5q0-.638-.531-.638h-1.116q-.531,0-.531.638v.728Q1119.536,739.866,1120.067,739.866Z" transform="translate(-1086.068 -732.586)" fill="#fff"/>
    <path id="Path_831" data-name="Path 831" d="M1168.929,721v-5.091h-1.366v-.053l.431-.914h.935v-1.913l1.01-.478h.053v2.391h1.366v.053l-.431.914h-.935v4.613l-1.01.478Z" transform="translate(-1129.924 -712.55)" fill="#fff"/>
    <path id="Path_832" data-name="Path 832" d="M1213.551,714.657a.662.662,0,0,1,0-.919.629.629,0,0,1,.9,0,.661.661,0,0,1,0,.919.629.629,0,0,1-.9,0Zm-.08,7.232V716.1l1.01-.478h.053v5.792l-1.01.478Z" transform="translate(-1170.843 -713.44)" fill="#fff"/>
    <path id="Path_833" data-name="Path 833" d="M1243.366,740.822a1.409,1.409,0,0,1-1.594-1.594v-2.657a1.409,1.409,0,0,1,1.594-1.594h1.222a1.409,1.409,0,0,1,1.594,1.594v2.657a1.409,1.409,0,0,1-1.594,1.594Zm0-.956h1.222q.531,0,.531-.638v-2.657q0-.638-.531-.637h-1.222q-.531,0-.531.637v2.657Q1242.835,739.866,1243.366,739.866Z" transform="translate(-1196.221 -732.586)" fill="#fff"/>
    <path id="Path_834" data-name="Path 834" d="M1298.09,741.035v-4.464a1.409,1.409,0,0,1,1.594-1.594h1.222a1.409,1.409,0,0,1,1.594,1.594v3.986l-1.01.478h-.053v-4.464q0-.638-.531-.637h-1.222q-.531,0-.531.637v3.986l-1.01.478Z" transform="translate(-1246.534 -732.586)" fill="#fff"/>
    <path id="Path_835" data-name="Path 835" d="M1396.771,721v-7.971l1.01-.478h.053v7.971l-1.01.478Z" transform="translate(-1334.694 -712.55)" fill="#fff"/>
    <path id="Path_836" data-name="Path 836" d="M1424.182,741.035v-4.464a1.409,1.409,0,0,1,1.594-1.594H1427a1.409,1.409,0,0,1,1.594,1.594v3.986l-1.01.478h-.053v-4.464q0-.638-.531-.637h-1.222q-.531,0-.531.637v3.986l-1.01.478Z" transform="translate(-1359.182 -732.586)" fill="#fff"/>
    <path id="Path_837" data-name="Path 837" d="M1523.065,722.567v-7.758l.564-.266h2.837a1.644,1.644,0,0,1,1.86,1.86v4.3a1.644,1.644,0,0,1-1.86,1.86Zm1.063-.956h2.338q.8,0,.8-.9v-4.3q0-.9-.8-.9h-2.338Z" transform="translate(-1447.522 -714.331)" fill="#fff"/>
    <path id="Path_838" data-name="Path 838" d="M1591.443,740.822a1.409,1.409,0,0,1-1.594-1.594v-2.657a1.409,1.409,0,0,1,1.594-1.594h1.222a1.409,1.409,0,0,1,1.594,1.594v.282l-3.332,2.576a.472.472,0,0,0,.516.437h1.222q.531,0,.531-.638v-.282l1.01-.478h.053v.76a1.409,1.409,0,0,1-1.594,1.594Zm-.531-2.5,2.28-1.763q-.032-.623-.526-.623h-1.222q-.531,0-.531.637Z" transform="translate(-1507.185 -732.586)" fill="#fff"/>
    <path id="Path_839" data-name="Path 839" d="M1646.265,740.822a1.409,1.409,0,0,1-1.594-1.594v-.191l1.01-.478h.053v.669q0,.638.531.638h1.222q.531,0,.531-.638v-.42q0-.638-.531-.638h-1a1.6,1.6,0,0,1,0-3.194h.622q1.594,0,1.594,1.286l-1.01.478h-.053v-.17q0-.638-.531-.637h-.622q-.531,0-.531.637t.531.643h1a1.409,1.409,0,0,1,1.594,1.594v.42a1.409,1.409,0,0,1-1.594,1.594Z" transform="translate(-1556.162 -732.586)" fill="#fff"/>
    <path id="Path_840" data-name="Path 840" d="M1701.378,714.657a.661.661,0,0,1,0-.919.629.629,0,0,1,.9,0,.662.662,0,0,1,0,.919.629.629,0,0,1-.9,0Zm-.08,7.232V716.1l1.01-.478h.053v5.792l-1.01.478Z" transform="translate(-1606.656 -713.44)" fill="#fff"/>
    <path id="Path_841" data-name="Path 841" d="M1731.2,740.822a1.409,1.409,0,0,1-1.594-1.594v-2.657a1.409,1.409,0,0,1,1.594-1.594h1.222a1.409,1.409,0,0,1,1.594,1.594v4.836a1.409,1.409,0,0,1-1.594,1.594h-2.264v-.053l.425-.9h1.838q.531,0,.531-.638v-.744a.89.89,0,0,1-.531.159Zm0-.956h1.222q.531,0,.531-.638v-2.657q0-.638-.531-.637H1731.2q-.532,0-.531.637v2.657Q1730.664,739.866,1731.2,739.866Z" transform="translate(-1632.036 -732.586)" fill="#fff"/>
    <path id="Path_842" data-name="Path 842" d="M1787.413,741.035v-4.464a1.409,1.409,0,0,1,1.594-1.594h1.222a1.409,1.409,0,0,1,1.594,1.594v3.986l-1.01.478h-.053v-4.464q0-.638-.532-.637h-1.222q-.531,0-.531.637v3.986l-1.01.478Z" transform="translate(-1683.684 -732.586)" fill="#fff"/>
  </g>
</svg>
