<svg xmlns="http://www.w3.org/2000/svg" width="263.162" height="59.2" viewBox="0 0 263.162 59.2">
  <g id="Group_867" data-name="Group 867" transform="translate(-370.364 -38.017)">
    <g id="Group_790" data-name="Group 790" transform="translate(343.284 31)">
      <path id="Path_808" data-name="Path 808" d="M7,14.68V36.887L0,42.3V0L14.48,11.531l-5.788,4.6Zm23.553,9.487V35.1L0,59.2V49.862L23.418,31.547V27.628L9.3,16.625,30.552,0V9.145L20.98,16.625Z" transform="translate(27.08 7.017)" fill="#fff"/>
      <g id="Group_787" data-name="Group 787" transform="translate(64.451 12.489)">
        <path id="Path_810" data-name="Path 810" d="M543.287,209.868V191.727l1.317-.621h6.635q4.349,0,4.349,4.349v10.064q0,4.349-4.349,4.349Zm2.485-2.237h5.467q1.864,0,1.864-2.112V195.455q0-2.112-1.864-2.112h-5.467Z" transform="translate(-543.287 -190.609)" fill="#fff"/>
        <path id="Path_811" data-name="Path 811" d="M672.045,239.793q-3.728,0-3.728-3.728v-9.319l2.361-1.118h.124v10.437q0,1.491,1.243,1.491H674.9q1.242,0,1.242-1.491v-9.319l2.361-1.118h.124V241.16q0,3.727-3.727,3.728h-5.293v-.124l.994-2.112h4.3q1.242,0,1.242-1.491v-1.739a1.98,1.98,0,0,1-1.242.373Z" transform="translate(-651.667 -220.535)" fill="#fff"/>
        <path id="Path_812" data-name="Path 812" d="M778.418,243.526V233.089q0-3.727,3.727-3.728H785q3.728,0,3.728,3.728v9.319l-2.361,1.118h-.124V233.089q0-1.491-1.243-1.491h-2.858q-1.243,0-1.242,1.491v9.319l-2.361,1.118Z" transform="translate(-747.107 -223.77)" fill="#fff"/>
        <path id="Path_813" data-name="Path 813" d="M882.916,243.028q-3.727,0-3.728-3.728v-1.7q0-3.728,3.728-3.728h2.609a2.31,2.31,0,0,1,1.242.373v-1.156q0-1.491-1.242-1.491h-4.448v-.124l.994-2.112h3.454q3.727,0,3.728,3.728v9.319l-2.361,1.118h-.124v-.87a1.947,1.947,0,0,1-1.242.373Zm0-2.237h2.609q1.242,0,1.242-1.491v-1.7q0-1.491-1.242-1.491h-2.609q-1.243,0-1.243,1.491v1.7Q881.673,240.792,882.916,240.792Z" transform="translate(-834.458 -223.77)" fill="#fff"/>
        <path id="Path_814" data-name="Path 814" d="M982.758,243.526V233.089q0-3.727,3.727-3.728h2.858a3.069,3.069,0,0,1,2.485.919,3.16,3.16,0,0,1,2.485-.919h2.858q3.728,0,3.728,3.728v9.319l-2.361,1.118h-.124V233.089q0-1.491-1.243-1.491h-2.858q-1.243,0-1.243,1.491v9.319l-2.361,1.118h-.125V233.089q0-1.491-1.242-1.491h-2.858q-1.243,0-1.243,1.491v9.319l-2.361,1.118Z" transform="translate(-924.236 -223.77)" fill="#fff"/>
        <path id="Path_815" data-name="Path 815" d="M1150.209,191.837a1.546,1.546,0,0,1,0-2.15,1.47,1.47,0,0,1,2.112,0,1.545,1.545,0,0,1,0,2.15,1.47,1.47,0,0,1-2.112,0Zm-.186,16.91V195.2l2.361-1.118h.125v13.543l-2.361,1.118Z" transform="translate(-1069.011 -188.991)" fill="#fff"/>
        <path id="Path_816" data-name="Path 816" d="M1206.686,243.028q-3.727,0-3.727-3.728v-6.212q0-3.727,3.727-3.728h2.858q3.727,0,3.727,3.728v.659l-2.36,1.118h-.125v-1.777q0-1.491-1.242-1.491h-2.858q-1.243,0-1.242,1.491V239.3q0,1.491,1.242,1.491h2.858q1.242,0,1.242-1.491v-.658l2.361-1.118h.124V239.3q0,3.727-3.727,3.728Z" transform="translate(-1115.114 -223.77)" fill="#fff"/>
        <path id="Path_817" data-name="Path 817" d="M1312.5,243.028q-3.728,0-3.727-3.728v-6.212q0-3.727,3.727-3.728h2.858q3.728,0,3.728,3.728V239.3q0,3.727-3.728,3.728Zm0-2.237h2.858q1.242,0,1.242-1.491v-6.212q0-1.491-1.242-1.491H1312.5q-1.243,0-1.243,1.491V239.3Q1311.262,240.792,1312.5,240.792Z" transform="translate(-1206.841 -223.77)" fill="#fff"/>
        <path id="Path_818" data-name="Path 818" d="M1494.139,209.868q-4.349,0-4.349-4.349v-1.367l2.361-1.118h.124v2.485q0,2.113,1.864,2.112h3.852q1.864,0,1.864-2.112V202.91q0-2.112-1.864-2.112h-3.355q-3.727,0-3.728-3.727v-2.237q0-3.727,3.728-3.727h2.858q3.727,0,3.728,3.727v.659l-2.361,1.118h-.124v-1.777q0-1.491-1.242-1.491h-2.858q-1.243,0-1.242,1.491v2.237q0,1.491,1.242,1.491h3.355q4.349,0,4.349,4.349v2.609q0,4.349-4.349,4.349Z" transform="translate(-1363.749 -190.609)" fill="#fff"/>
        <path id="Path_819" data-name="Path 819" d="M1616.681,239.793q-3.727,0-3.727-3.728v-9.319l2.361-1.118h.125v10.437q0,1.491,1.242,1.491h2.858q1.242,0,1.242-1.491v-9.319l2.361-1.118h.124V241.16q0,3.727-3.727,3.728h-5.293v-.124l.994-2.112h4.3q1.242,0,1.242-1.491v-1.739a1.979,1.979,0,0,1-1.242.373Z" transform="translate(-1470.512 -220.535)" fill="#fff"/>
        <path id="Path_820" data-name="Path 820" d="M1723.983,243.028q-3.728,0-3.728-3.728v-.447l2.361-1.118h.125V239.3q0,1.491,1.242,1.491h2.858q1.242,0,1.242-1.491v-.982q0-1.491-1.242-1.491H1724.5q-3.728,0-3.728-3.74t3.728-3.728h1.454q3.728,0,3.727,3.007l-2.36,1.118h-.125v-.4q0-1.491-1.242-1.491H1724.5q-1.243,0-1.243,1.491t1.243,1.5h2.336q3.727,0,3.728,3.727v.982q0,3.727-3.728,3.728Z" transform="translate(-1563.524 -223.77)" fill="#fff"/>
        <path id="Path_821" data-name="Path 821" d="M1814.8,207.129v-11.9h-3.193V195.1l1.006-2.137h2.187v-4.473l2.361-1.118h.125v5.591h3.193v.124l-1.006,2.137h-2.187v10.785l-2.361,1.118Z" transform="translate(-1642.715 -187.373)" fill="#fff"/>
        <path id="Path_822" data-name="Path 822" d="M1898.287,243.028q-3.727,0-3.727-3.728v-6.212q0-3.727,3.727-3.728h2.858q3.728,0,3.727,3.728v.659l-7.791,6.024a1.1,1.1,0,0,0,1.205,1.021h2.858q1.242,0,1.242-1.491v-.658l2.361-1.118h.125V239.3q0,3.727-3.727,3.728Zm-1.242-5.852,5.33-4.121q-.075-1.458-1.23-1.458h-2.858q-1.242,0-1.242,1.491Z" transform="translate(-1714.618 -223.77)" fill="#fff"/>
        <path id="Path_823" data-name="Path 823" d="M1999.995,243.526V233.089q0-3.727,3.727-3.728h2.858a3.068,3.068,0,0,1,2.485.919,3.161,3.161,0,0,1,2.485-.919h2.858q3.728,0,3.728,3.728v9.319l-2.361,1.118h-.124V233.089q0-1.491-1.243-1.491h-2.858q-1.243,0-1.243,1.491v9.319l-2.361,1.118h-.124V233.089q0-1.491-1.243-1.491h-2.858q-1.242,0-1.242,1.491v9.319l-2.36,1.118Z" transform="translate(-1806.013 -223.77)" fill="#fff"/>
        <path id="Path_824" data-name="Path 824" d="M2165.141,243.028q-3.728,0-3.728-3.728v-.447l2.361-1.118h.124V239.3q0,1.491,1.242,1.491H2168q1.242,0,1.243-1.491v-.982q0-1.491-1.243-1.491h-2.336q-3.728,0-3.728-3.74t3.728-3.728h1.454q3.728,0,3.728,3.007l-2.361,1.118h-.125v-.4q0-1.491-1.242-1.491h-1.454q-1.242,0-1.242,1.491t1.242,1.5H2168q3.728,0,3.728,3.727v.982q0,3.727-3.728,3.728Z" transform="translate(-1945.936 -223.77)" fill="#fff"/>
      </g>
    </g>
    <g id="Group_866" data-name="Group 866" transform="translate(2717 2093)" style="isolation: isolate">
      <path id="Path_809" data-name="Path 809" d="M421.415,574.8h-.891v-2.391l2.849-2.218V569l-2.849-2.262v-3.152l4.98,4v4.023Zm-4.327-5.675-2.3,2h-2.805l-4.74,3.675V571.78l10.676-8.393h2.11v1.2l-5.5,4.544Zm.8-2.218,2.131-1.7V574.8h-2.131Z" transform="translate(-2717.015 -2582.387)" fill="#28d3b4"/>
      <g id="Group_788" data-name="Group 788" transform="translate(-2287.15 -2018)">
        <path id="Path_825" data-name="Path 825" d="M814.554,722.78V716.4a1.644,1.644,0,0,1,1.86-1.86h1.647a1.644,1.644,0,0,1,1.86,1.86v5.9l-1.01.478h-.053v-3.741h-3.241V722.3l-1.01.478Zm1.063-4.708h3.241V716.4q0-.9-.8-.9h-1.647q-.8,0-.8.9Z" transform="translate(-814.554 -714.331)" fill="#28d3b4"/>
        <path id="Path_826" data-name="Path 826" d="M883.927,739.042a1.409,1.409,0,0,1-1.594-1.594v-3.985l1.01-.478h.053v4.464q0,.638.531.638h1.222q.531,0,.531-.638v-3.985l1.01-.478h.053v4.464a1.409,1.409,0,0,1-1.594,1.594Z" transform="translate(-875.106 -730.805)" fill="#28d3b4"/>
        <path id="Path_827" data-name="Path 827" d="M933.787,721v-5.091h-1.366v-.053l.431-.914h.935v-1.913l1.01-.478h.053v2.391h1.366v.053l-.43.914h-.935v4.613l-1.01.478Z" transform="translate(-919.854 -712.55)" fill="#28d3b4"/>
        <path id="Path_828" data-name="Path 828" d="M978.322,740.822a1.409,1.409,0,0,1-1.594-1.594v-2.657a1.409,1.409,0,0,1,1.594-1.594h1.222a1.409,1.409,0,0,1,1.594,1.594v2.657a1.409,1.409,0,0,1-1.594,1.594Zm0-.956h1.222q.531,0,.531-.638v-2.657q0-.638-.531-.637h-1.222q-.531,0-.531.637v2.657Q977.791,739.866,978.322,739.866Z" transform="translate(-959.437 -732.586)" fill="#28d3b4"/>
        <path id="Path_829" data-name="Path 829" d="M1033.249,741.035v-4.464a1.409,1.409,0,0,1,1.594-1.594h1.222a1.312,1.312,0,0,1,1.063.393,1.352,1.352,0,0,1,1.063-.393h1.222a1.409,1.409,0,0,1,1.594,1.594v3.986l-1.01.478h-.053v-4.464q0-.638-.531-.637h-1.222q-.531,0-.531.637v3.986l-1.01.478h-.053v-4.464q0-.638-.531-.637h-1.222q-.531,0-.531.637v3.986l-1.01.478Z" transform="translate(-1009.931 -732.586)" fill="#28d3b4"/>
        <path id="Path_830" data-name="Path 830" d="M1120.067,740.822a1.409,1.409,0,0,1-1.594-1.594V738.5a1.409,1.409,0,0,1,1.594-1.594h1.116a.989.989,0,0,1,.531.159v-.494q0-.638-.531-.637h-1.9v-.053l.425-.9h1.477a1.409,1.409,0,0,1,1.594,1.594v3.986l-1.01.478h-.053v-.372a.832.832,0,0,1-.531.159Zm0-.956h1.116q.531,0,.531-.638V738.5q0-.638-.531-.638h-1.116q-.531,0-.531.638v.728Q1119.536,739.866,1120.067,739.866Z" transform="translate(-1086.068 -732.586)" fill="#28d3b4"/>
        <path id="Path_831" data-name="Path 831" d="M1168.929,721v-5.091h-1.366v-.053l.431-.914h.935v-1.913l1.01-.478h.053v2.391h1.366v.053l-.431.914h-.935v4.613l-1.01.478Z" transform="translate(-1129.924 -712.55)" fill="#28d3b4"/>
        <path id="Path_832" data-name="Path 832" d="M1213.551,714.657a.662.662,0,0,1,0-.919.629.629,0,0,1,.9,0,.661.661,0,0,1,0,.919.629.629,0,0,1-.9,0Zm-.08,7.232V716.1l1.01-.478h.053v5.792l-1.01.478Z" transform="translate(-1170.843 -713.44)" fill="#28d3b4"/>
        <path id="Path_833" data-name="Path 833" d="M1243.366,740.822a1.409,1.409,0,0,1-1.594-1.594v-2.657a1.409,1.409,0,0,1,1.594-1.594h1.222a1.409,1.409,0,0,1,1.594,1.594v2.657a1.409,1.409,0,0,1-1.594,1.594Zm0-.956h1.222q.531,0,.531-.638v-2.657q0-.638-.531-.637h-1.222q-.531,0-.531.637v2.657Q1242.835,739.866,1243.366,739.866Z" transform="translate(-1196.221 -732.586)" fill="#28d3b4"/>
        <path id="Path_834" data-name="Path 834" d="M1298.09,741.035v-4.464a1.409,1.409,0,0,1,1.594-1.594h1.222a1.409,1.409,0,0,1,1.594,1.594v3.986l-1.01.478h-.053v-4.464q0-.638-.531-.637h-1.222q-.531,0-.531.637v3.986l-1.01.478Z" transform="translate(-1246.534 -732.586)" fill="#28d3b4"/>
        <path id="Path_835" data-name="Path 835" d="M1396.771,721v-7.971l1.01-.478h.053v7.971l-1.01.478Z" transform="translate(-1334.694 -712.55)" fill="#28d3b4"/>
        <path id="Path_836" data-name="Path 836" d="M1424.182,741.035v-4.464a1.409,1.409,0,0,1,1.594-1.594H1427a1.409,1.409,0,0,1,1.594,1.594v3.986l-1.01.478h-.053v-4.464q0-.638-.531-.637h-1.222q-.531,0-.531.637v3.986l-1.01.478Z" transform="translate(-1359.182 -732.586)" fill="#28d3b4"/>
        <path id="Path_837" data-name="Path 837" d="M1523.065,722.567v-7.758l.564-.266h2.837a1.644,1.644,0,0,1,1.86,1.86v4.3a1.644,1.644,0,0,1-1.86,1.86Zm1.063-.956h2.338q.8,0,.8-.9v-4.3q0-.9-.8-.9h-2.338Z" transform="translate(-1447.522 -714.331)" fill="#28d3b4"/>
        <path id="Path_838" data-name="Path 838" d="M1591.443,740.822a1.409,1.409,0,0,1-1.594-1.594v-2.657a1.409,1.409,0,0,1,1.594-1.594h1.222a1.409,1.409,0,0,1,1.594,1.594v.282l-3.332,2.576a.472.472,0,0,0,.516.437h1.222q.531,0,.531-.638v-.282l1.01-.478h.053v.76a1.409,1.409,0,0,1-1.594,1.594Zm-.531-2.5,2.28-1.763q-.032-.623-.526-.623h-1.222q-.531,0-.531.637Z" transform="translate(-1507.185 -732.586)" fill="#28d3b4"/>
        <path id="Path_839" data-name="Path 839" d="M1646.265,740.822a1.409,1.409,0,0,1-1.594-1.594v-.191l1.01-.478h.053v.669q0,.638.531.638h1.222q.531,0,.531-.638v-.42q0-.638-.531-.638h-1a1.6,1.6,0,0,1,0-3.194h.622q1.594,0,1.594,1.286l-1.01.478h-.053v-.17q0-.638-.531-.637h-.622q-.531,0-.531.637t.531.643h1a1.409,1.409,0,0,1,1.594,1.594v.42a1.409,1.409,0,0,1-1.594,1.594Z" transform="translate(-1556.162 -732.586)" fill="#28d3b4"/>
        <path id="Path_840" data-name="Path 840" d="M1701.378,714.657a.661.661,0,0,1,0-.919.629.629,0,0,1,.9,0,.662.662,0,0,1,0,.919.629.629,0,0,1-.9,0Zm-.08,7.232V716.1l1.01-.478h.053v5.792l-1.01.478Z" transform="translate(-1606.656 -713.44)" fill="#28d3b4"/>
        <path id="Path_841" data-name="Path 841" d="M1731.2,740.822a1.409,1.409,0,0,1-1.594-1.594v-2.657a1.409,1.409,0,0,1,1.594-1.594h1.222a1.409,1.409,0,0,1,1.594,1.594v4.836a1.409,1.409,0,0,1-1.594,1.594h-2.264v-.053l.425-.9h1.838q.531,0,.531-.638v-.744a.89.89,0,0,1-.531.159Zm0-.956h1.222q.531,0,.531-.638v-2.657q0-.638-.531-.637H1731.2q-.532,0-.531.637v2.657Q1730.664,739.866,1731.2,739.866Z" transform="translate(-1632.036 -732.586)" fill="#28d3b4"/>
        <path id="Path_842" data-name="Path 842" d="M1787.413,741.035v-4.464a1.409,1.409,0,0,1,1.594-1.594h1.222a1.409,1.409,0,0,1,1.594,1.594v3.986l-1.01.478h-.053v-4.464q0-.638-.532-.637h-1.222q-.531,0-.531.637v3.986l-1.01.478Z" transform="translate(-1683.684 -732.586)" fill="#28d3b4"/>
      </g>
    </g>
  </g>
</svg>
